# xmcd
#
# Track frame offsets:
#	183
#	14403
#	27775
#	42173
#	56088
#	71293
#	83328
#	94083
#	104955
#	117473
#	127580
#	141650
#	154143
#	167018
#	179453
#	191513
#	204470
#	219353
#	231493
#	243040
#
# Disc length: 3419 seconds
#
# Revision: 0
# Processed by: cddbd v1.5.2PL0 Copyright (c) Steve Scherf et al.
# Submitted via: EasyCDDAExtractor 16.0.9.1
#
DISCID=130d5914
DTITLE=Josephine Baker - FR-010 Josephine Baker  J'ai Deux Amours
DYEAR=1900
DGENRE=Mysic Hall
TTITLE0=Dis Mois Josephine
TTITLE1=Voulez -Vous de La Canne A Sucre
TTITLE2=J'ai  Deux Amours
TTITLE3=Pretty Little Baby
TTITLE4=Suppose
TTITLE5=La Petite Tonkinoise
TTITLE6=You're The One I Care For
TTITLE7=You're Driving Me Crazy
TTITLE8=Confessing
TTITLE9=My Fate Is In Your Hands
TTITLE10=King For A Day
TTITLE11=Love Is a Dreamer
TTITLE12=Aux Iles Hawaii
TTITLE13=Pardon Si J'e T'Importune
TTITLE14=Ram-Pam-Pam
TTITLE15=Les Mots D'Amour
TTITLE16=Sans Amours
TTITLE17=Si Jetais Blanche
TTITLE18=Non Reve C'etait Vous
TTITLE19=Madina
EXTD=
EXTT0=
EXTT1=
EXTT2=
EXTT3=
EXTT4=
EXTT5=
EXTT6=
EXTT7=
EXTT8=
EXTT9=
EXTT10=
EXTT11=
EXTT12=
EXTT13=
EXTT14=
EXTT15=
EXTT16=
EXTT17=
EXTT18=
EXTT19=
PLAYORDER=
